<?xml version="1.0" encoding="UTF-8"?>
<svg width="194px" height="32px" viewBox="0 0 194 32" version="1.1" xmlns="http://www.w3.org/2000/svg" xmlns:xlink="http://www.w3.org/1999/xlink">
    <!-- Generator: Sketch 53.1 (72631) - https://sketchapp.com -->
    <title>logo-natalia-faria-arquitetura-h-w</title>
    <desc>Created with Sketch.</desc>
    <g id="logo-natalia-faria-arquitetura-h-w" stroke="none" stroke-width="1" fill="none" fill-rule="evenodd">
        <g fill="#FFFFFF" fill-rule="nonzero">
            <path d="M36.7135782,15.8947806 L27.6266137,0.102404159 C27.5764585,0.0169853044 27.4732206,-0.0210178685 27.3799534,0.0116054243 L18.3743867,3.3282356 L9.35484266,0.0116054243 C9.26157542,-0.0210178685 9.1583375,0.0169853044 9.10818238,0.102404159 L0.0277954578,15.8947806 C-0.00926515261,15.9585362 -0.00926515261,16.0373857 0.0277954578,16.1011414 L9.10571578,31.8935178 L9.10571578,31.8935178 C9.11445,31.907282 9.1243533,31.9202623 9.13531502,31.9323137 L9.13531502,31.9364408 C9.14685983,31.9471588 9.15954306,31.9565703 9.17313626,31.9645059 L9.18053607,31.9686332 C9.19425811,31.9758729 9.20855949,31.9819473 9.22329051,31.9867928 L9.23644573,31.9867928 C9.25226785,31.9910676 9.26857088,31.993287 9.28495558,31.9933964 C9.30045925,31.9930492 9.31588705,31.991113 9.33099883,31.9876183 L9.34333185,31.9876183 L9.35566486,31.9876183 L18.3694535,28.6792426 L27.3791312,31.9876183 C27.4015526,31.9957182 27.4251895,31.9999058 27.4490182,32 C27.522554,31.9999756 27.5905215,31.9606694 27.6274358,31.8968196 L36.7135782,16.1011414 C36.7497948,16.0371591 36.7497948,15.9587628 36.7135782,15.8947806 Z M9.40164736,31.5259259 L0.474074074,16 L9.40164736,0.474074074 L18.2963504,3.74338458 C18.312817,3.75235729 18.3305523,3.75875408 18.3489428,3.76235384 L27.2592593,7.0374376 L27.2592593,24.6169919 L9.45588336,6.74795022 L9.45588336,6.74795022 C9.4461501,6.73829315 9.43540479,6.72972089 9.42383482,6.72238296 L9.40739967,6.7133107 C9.40136475,6.70952482 9.39504555,6.70621584 9.38849925,6.7034137 C9.38167092,6.70035126 9.37449611,6.69813559 9.36713355,6.69681569 C9.36177467,6.69479004 9.35628333,6.69313663 9.35069841,6.69186719 C9.3373271,6.69021077 9.32380359,6.69021077 9.31043229,6.69186719 L9.31043229,6.69186719 C9.29731208,6.69065119 9.28410814,6.69065119 9.27098793,6.69186719 C9.26459561,6.69313915 9.25828432,6.69479158 9.25208751,6.69681569 L9.23236532,6.7034137 L9.21099963,6.7149602 L9.19702975,6.72238296 C9.17461554,6.73746327 9.15535407,6.75679489 9.14032849,6.77929073 C9.13738463,6.78340141 9.13490419,6.78782713 9.13293267,6.79248673 C9.12882388,6.79990949 9.1247151,6.80733225 9.12142807,6.81475499 C9.11914012,6.82067849 9.11721901,6.8267382 9.11567576,6.83289951 C9.11327173,6.83962624 9.11134941,6.84651668 9.10992346,6.85351827 C9.1087084,6.86420534 9.1087084,6.87499645 9.10992346,6.88568353 C9.10992346,6.88568353 9.10992346,6.89063204 9.10992346,6.89393103 L9.10992346,25.1209145 L9.10992346,25.142358 L9.10992346,25.1613272 C9.10992346,25.1671005 9.11403225,25.1728737 9.11567576,25.178647 C9.11764273,25.1856898 9.12011444,25.1925807 9.12307158,25.1992657 C9.12529449,25.2044849 9.12804828,25.2094597 9.13128915,25.2141112 C9.13435419,25.2209669 9.13792507,25.2275833 9.141972,25.2339052 L9.15347661,25.247926 L9.16744649,25.2635963 L9.18141636,25.2751428 C9.18688598,25.2802623 9.19295697,25.2846937 9.19949503,25.2883388 C9.20386948,25.2915433 9.20854887,25.2943058 9.2134649,25.2965863 L9.23565236,25.307308 L9.23976114,25.307308 L17.7917913,28.4471327 L9.40164736,31.5259259 Z M27.3336163,31.5259259 L18.4449274,28.262302 C18.4313652,28.255378 18.4170229,28.2501166 18.4022092,28.2466313 L9.48148147,24.9706357 L9.48148147,7.39061447 L27.279397,25.2601308 C27.2893196,25.2698159 27.300037,25.2786447 27.3114357,25.2865235 L27.3237583,25.2931217 L27.3467605,25.3054933 C27.3529232,25.307626 27.35924,25.3092804 27.3656551,25.310442 L27.3853712,25.3170402 C27.398211,25.3182979 27.4111422,25.3182979 27.423982,25.3170402 L27.423982,25.3170402 C27.4373743,25.3182169 27.4508435,25.3182169 27.4642358,25.3170402 L27.4798443,25.3120915 C27.4873938,25.310114 27.4948037,25.3076342 27.502025,25.3046685 C27.5082851,25.3021428 27.5143295,25.2991086 27.5200981,25.295596 C27.5261167,25.292792 27.5318879,25.2894811 27.5373497,25.2856987 C27.5472049,25.2789919 27.5565418,25.2715479 27.5652809,25.2634299 L27.5652809,25.2634299 L27.5702099,25.2576565 C27.5779246,25.2501765 27.5848105,25.2418805 27.5907476,25.2329134 C27.5956766,25.2263152 27.5981411,25.2188923 27.6022487,25.2122941 C27.6050392,25.2075159 27.6075092,25.2025563 27.6096422,25.1974481 C27.6131297,25.1886208 27.6158777,25.1795167 27.6178573,25.1702306 C27.6183216,25.1663958 27.6183216,25.1625187 27.6178573,25.1586838 C27.6194548,25.1449844 27.6194548,25.1311446 27.6178573,25.1174453 L27.6178573,6.88997769 C27.6182611,6.88228515 27.6182611,6.8745766 27.6178573,6.86688407 C27.6182549,6.86111757 27.6182549,6.85533035 27.6178573,6.84956385 C27.6178573,6.84296567 27.6137498,6.83636749 27.6121067,6.82976931 C27.6104637,6.82317114 27.6079992,6.81739773 27.6055347,6.81079956 C27.6022122,6.80547826 27.5991951,6.79997081 27.5964981,6.79430411 C27.5934251,6.78824204 27.5898528,6.78244847 27.5858186,6.77698388 C27.5821728,6.77141049 27.5780496,6.76616706 27.573496,6.76131322 L27.5603519,6.74646731 L27.5455648,6.73409573 L27.5291346,6.72172414 L27.5135261,6.71347642 L27.4921669,6.70275438 L27.4880594,6.70275438 L18.9550823,3.56037197 L27.3344379,0.474074074 L36.2666667,15.9995876 L27.3336163,31.5259259 Z" id="Shape" stroke="#FFFFFF" stroke-width="0.2"></path>
            <g id="Group" transform="translate(51.000000, 9.000000)">
                <path d="M8.00072607,10.2104516 L7.88836896,10.2104516 C7.84178405,9.97427081 7.75404759,9.74923682 7.62960702,9.54675686 L2.48501178,0.990476067 L0.1238094,0.990476067 L0.1238094,12.2571427 L1.79044036,12.2571427 L1.79044036,3.18963756 L1.88747607,3.18963756 C1.92876918,3.42250845 2.01700982,3.64333038 2.14623798,3.83718836 L7.22444038,12.2571427 L9.65714273,12.2571427 L9.65714273,0.990476067 L8.00072607,0.990476067 L8.00072607,10.2104516 Z" id="Path"></path>
                <path d="M23.3156179,6.1531257 C23.3156179,4.56054789 22.3446562,3.59047607 19.6148357,3.59047607 C18.5731607,3.61654433 17.5427639,3.80516717 16.5637542,4.14900227 L16.4614532,5.4804734 C17.3627102,5.13295775 18.3212905,4.94379504 19.29178,4.9219472 C21.099097,4.9219472 21.4921481,5.52889053 21.4921481,6.53181685 L21.4921481,7.1387602 C20.7793302,7.03264077 20.0596601,6.97485936 19.3384435,6.96584184 C17.7357284,6.96584184 15.7238094,7.55722257 15.7238094,9.75847285 C15.7238094,11.4340515 17.2583239,12.2571427 18.7748908,12.2571427 C19.8320008,12.2571427 20.6845089,11.9441606 21.5208642,11.1055066 L21.6052176,11.1055066 L21.8780202,12.2571427 L23.5238094,12.0530991 L23.3192075,10.3757913 L23.3156179,6.1531257 Z M21.4921481,9.78441065 C20.995455,10.5096778 20.1594139,10.9522157 19.2576796,10.967172 C18.3369709,10.967172 17.534716,10.6057727 17.534716,9.62013819 C17.534716,8.5030858 18.4320929,8.10883202 19.5986829,8.10883202 C20.2335916,8.11050913 20.8671419,8.16547435 21.4921481,8.27310441 L21.4921481,9.78441065 Z" id="Shape"></path>
                <path d="M31.9889377,9.15777169 L31.9889377,5.30032931 L34.510504,5.41102114 L34.7522981,4.10452219 L31.9889377,4.10452219 L32.0580218,1.85714273 L31.6598797,1.85714273 L30.4672716,2.11374651 L30.1909356,4.10452219 L28.7238094,4.27223707 L28.7238094,5.34058088 L30.1782095,5.45127271 L30.1254875,9.54687019 C30.1254875,11.1887989 30.6617976,12.2571427 32.8215818,12.2571427 C33.468393,12.2461247 34.1069994,12.1214683 34.703212,11.8898471 L34.7904761,10.6470799 C34.3576763,10.8333496 33.886369,10.9311779 33.4087959,10.9338723 C32.2307318,10.9355495 31.9889377,10.4173104 31.9889377,9.15777169 Z" id="Path"></path>
                <polygon id="Path" points="45.1904761 1.3148231 44.222743 0.1238094 41.7238094 2.7774715 42.4035479 3.59047607"></polygon>
                <path d="M46.7226118,6.1531257 C46.7226118,4.56054789 45.7489591,3.59047607 43.0184201,3.59047607 C41.9758026,3.61669636 40.9444818,3.80531459 39.9645279,4.14900227 L39.8621327,5.4804734 C40.76422,5.13295775 41.7236834,4.94379504 42.6950669,4.9219472 C44.5058453,4.9219472 44.8974621,5.52889053 44.8974621,6.53181685 L44.8974621,7.1387602 C44.1839952,7.03257854 43.4636575,6.97479679 42.7417734,6.96584184 C41.1375818,6.96584184 39.1238094,7.55722257 39.1238094,9.75847285 C39.1238094,11.4340515 40.6597376,12.2571427 42.1777016,12.2571427 C43.2375818,12.2571427 44.0908752,11.9441606 44.9262046,11.1055066 L45.0124322,11.1055066 L45.285486,12.2571427 L46.9238094,12.0600158 L46.719019,10.382708 L46.7226118,6.1531257 Z M44.8956657,9.78441065 C44.3987334,10.5099058 43.5617864,10.9525155 42.6591387,10.967172 C41.7375819,10.967172 40.9363843,10.6057727 40.9363843,9.62013819 C40.9363843,8.5030858 41.8345878,8.10883202 43.0004561,8.10883202 C43.6359532,8.11043893 44.2700934,8.16540469 44.8956657,8.27310441 L44.8956657,9.78441065 Z" id="Shape"></path>
                <polygon id="Path" points="54.5233456 0.1238094 52.9904761 0.357751607 52.9904761 10.5192864 53.3341282 12.2571427 54.7238094 11.9897802 54.5233456 10.0338123"></polygon>
                <polygon id="Path" points="61.6571427 12.2571427 63.3904761 12.2571427 63.3904761 3.59047607 61.6571427 3.80878448"></polygon>
                <path d="M62.0716353,0.1238094 C61.7261373,0.12640017 61.3961094,0.266464199 61.1554144,0.51265405 C60.9147194,0.758843904 60.7834551,1.09060311 60.7909994,1.43368134 C60.7810912,1.77557715 60.9122288,2.1066557 61.1540264,2.35020326 C61.395824,2.59375081 61.7272952,2.72862912 62.0716353,2.72358571 C62.4198726,2.73003349 62.7560384,2.59685549 63.0042063,2.3541312 C63.2523744,2.11140691 63.3916113,1.7796105 63.3904691,1.43368134 C63.3882613,0.711169264 62.7990907,0.126002168 62.0716353,0.1238094 L62.0716353,0.1238094 Z" id="Path"></path>
                <path d="M76.1964639,6.1531257 C76.1964639,4.56054789 75.2228112,3.59047607 72.4922727,3.59047607 C71.4496548,3.61669636 70.4183338,3.80531459 69.4383803,4.14900227 L69.3359851,5.4804734 C70.2363824,5.13356348 71.1939644,4.94441185 72.1635301,4.9219472 C73.9725119,4.9219472 74.3659247,5.52889053 74.3659247,6.53181685 L74.3659247,7.1387602 C73.6524582,7.03257854 72.9321207,6.97479679 72.2102362,6.96584184 C70.606045,6.96584184 68.5904761,7.55722257 68.5904761,9.75847285 C68.5904761,11.4340515 70.1282004,12.2571427 71.6443679,12.2571427 C72.7024517,12.2571427 73.5557457,11.9441606 74.3928713,11.1055066 L74.4773024,11.1055066 L74.7503558,12.2571427 L76.3904761,12.0600158 L76.1856855,10.382708 L76.1964639,6.1531257 Z M74.369518,9.78441065 C73.8723673,10.5096778 73.0355557,10.9522157 72.1329909,10.967172 C71.2114342,10.967172 70.4102362,10.6057727 70.4102362,9.62013819 C70.4102362,8.5030858 71.3084403,8.10883202 72.4743085,8.10883202 C73.1098054,8.11043893 73.7439457,8.16540469 74.369518,8.27310441 L74.369518,9.78441065 Z" id="Shape"></path>
                <polygon id="Path" points="90.2571427 12.2571427 92.2445604 12.2571427 92.2445604 7.55313002 96.8322128 7.55313002 96.8322128 5.96718519 92.2445604 5.96718519 92.2445604 3.41065653 92.1201104 2.54233382 97.1904761 2.54233382 97.1904761 0.990476067 90.2571427 0.990476067"></polygon>
                <path d="M109.992826,6.1531257 C109.992826,4.56054789 109.020745,3.59047607 106.28778,3.59047607 C105.244906,3.61654433 104.213322,3.80516717 103.233185,4.14900227 L103.130766,5.4804734 C104.033061,5.13295775 104.992746,4.94379504 105.964353,4.9219472 C107.773752,4.9219472 108.167255,5.52889053 108.167255,6.53181685 L108.167255,7.1387602 C107.453624,7.03257854 106.73312,6.97479679 106.01107,6.96584184 C104.404712,6.96584184 102.390476,7.55722257 102.390476,9.75847285 C102.390476,11.4340515 103.926758,12.2571427 105.445072,12.2571427 C106.503399,12.2571427 107.356889,11.9441606 108.194207,11.1055066 L108.278658,11.1055066 L108.551775,12.2571427 L110.190476,12.0600158 L109.985638,10.382708 L109.992826,6.1531257 Z M108.167255,9.78441065 C107.66999,10.5096778 106.832986,10.9522157 105.930213,10.967172 C105.008444,10.967172 104.205265,10.6057727 104.205265,9.62013819 C104.205265,8.5030858 105.103675,8.10883202 106.271609,8.10883202 C106.907253,8.11043893 107.541539,8.16540469 108.167255,8.27310441 L108.167255,9.78441065 Z" id="Shape"></path>
                <path d="M118.284073,5.21001864 L118.195626,5.21001864 L117.950552,3.67491264 L116.257143,3.9137069 L116.518801,5.80790203 L116.518801,12.2571427 L118.392791,12.2571427 L118.392791,6.6768977 C118.674132,5.8609785 119.470408,5.32063938 120.353386,5.34647251 L121.177057,5.50088083 L121.457143,3.86343443 C121.164019,3.68270231 120.823716,3.58796449 120.476845,3.5905267 C119.520502,3.5905267 118.803705,4.18661464 118.284073,5.21001864 Z" id="Path"></path>
                <path d="M127.071635,0.1238094 C126.726137,0.12640017 126.396109,0.266464199 126.155414,0.51265405 C125.914719,0.758843904 125.783455,1.09060311 125.790999,1.43368134 C125.781091,1.77557715 125.912229,2.1066557 126.154027,2.35020326 C126.395824,2.59375081 126.727295,2.72862912 127.071635,2.72358571 C127.419872,2.73003349 127.756038,2.59685549 128.004206,2.3541312 C128.252374,2.11140691 128.391611,1.7796105 128.390469,1.43368134 C128.388261,0.711169264 127.799091,0.126002168 127.071635,0.1238094 L127.071635,0.1238094 Z" id="Path"></path>
                <polygon id="Path" points="126.657143 12.2571427 128.390476 12.2571427 128.390476 3.59047607 126.657143 3.80878448"></polygon>
                <path d="M141.191075,10.3757913 L141.191075,6.1531257 C141.191075,4.56054789 140.217422,3.59047607 137.486884,3.59047607 C136.444266,3.61669636 135.412945,3.80531459 134.432992,4.14900227 L134.330596,5.4804734 C135.232684,5.13295775 136.192147,4.94379504 137.16353,4.9219472 C138.972512,4.9219472 139.365925,5.52889053 139.365925,6.53181685 L139.365925,7.1387602 C138.652458,7.03257854 137.932121,6.97479679 137.210237,6.96584184 C135.606045,6.96584184 133.590476,7.55722257 133.590476,9.75847285 C133.590476,11.4340515 135.126404,12.2571427 136.644369,12.2571427 C137.702452,12.2571427 138.555746,11.9441606 139.392871,11.1055066 L139.477302,11.1055066 L139.750356,12.2571427 L141.390476,12.0600158 L141.191075,10.3757913 Z M139.364129,9.78441065 C138.866978,10.5096778 138.030167,10.9522157 137.127602,10.967172 C136.206045,10.967172 135.403051,10.6057727 135.403051,9.62013819 C135.403051,8.5030858 136.301254,8.10883202 137.468919,8.10883202 C138.104416,8.11043893 138.738556,8.16540469 139.364129,8.27310441 L139.364129,9.78441065 Z" id="Shape"></path>
            </g>
        </g>
    </g>
</svg>